<?xml version="1.0" encoding="UTF-8"?>
<svg version="1.1" xmlns="http://www.w3.org/2000/svg" width="500" height="500">
<path d="M0 0 C165 0 330 0 500 0 C500 165 500 330 500 500 C335 500 170 500 0 500 C0 335 0 170 0 0 Z " fill="#FEFEFE" transform="translate(0,0)"/>
<path d="M0 0 C1.12042694 0.00131424 1.12042694 0.00131424 2.26348877 0.00265503 C14.36181489 0.04933491 25.80172544 0.87732682 37.4375 4.375 C38.2634668 4.62169434 39.08943359 4.86838867 39.94042969 5.12255859 C62.22445254 11.98468964 81.08977375 22.81281167 98.4375 38.375 C99.60732422 39.41720703 99.60732422 39.41720703 100.80078125 40.48046875 C124.70823112 63.07672393 141.59044692 97.58562051 142.75494385 130.60572815 C142.84798448 134.46662318 142.87695764 138.3255608 142.875 142.1875 C142.87540283 143.00281189 142.87580566 143.81812378 142.8762207 144.65814209 C142.81598767 165.87315033 138.71276433 184.25375286 129.4375 203.375 C129.11378418 204.04998535 128.79006836 204.7249707 128.45654297 205.42041016 C111.6119816 240.04296308 81.83130574 264.90261142 45.84448242 277.8425293 C30.95710321 282.94727417 16.95761214 284.63924741 1.3125 284.6875 C0.6396698 284.69126648 -0.0331604 284.69503296 -0.72637939 284.69891357 C-13.86771486 284.73616158 -26.78310959 283.71723465 -39.375 279.75 C-40.21337402 279.48912598 -41.05174805 279.22825195 -41.91552734 278.95947266 C-64.09950305 271.82905805 -82.43324139 260.05574413 -99.5625 244.375 C-100.24441406 243.76398438 -100.92632812 243.15296875 -101.62890625 242.5234375 C-124.05466693 221.398475 -140.49681368 186.42514341 -141.71044922 155.61962891 C-141.82669107 151.28827146 -141.86216362 146.95775863 -141.875 142.625 C-141.87876648 141.91971161 -141.88253296 141.21442322 -141.88641357 140.48776245 C-141.98876514 102.63364163 -126.8862446 68.30920956 -100.75 41.1875 C-73.19336221 14.7123629 -38.26763646 -0.11017554 0 0 Z " fill="#FDFDFD" transform="translate(221.5625,79.625)"/>
<path d="M0 0 C1.12042694 0.00131424 1.12042694 0.00131424 2.26348877 0.00265503 C14.36181489 0.04933491 25.80172544 0.87732682 37.4375 4.375 C38.2634668 4.62169434 39.08943359 4.86838867 39.94042969 5.12255859 C62.22445254 11.98468964 81.08977375 22.81281167 98.4375 38.375 C99.60732422 39.41720703 99.60732422 39.41720703 100.80078125 40.48046875 C124.70823112 63.07672393 141.59044692 97.58562051 142.75494385 130.60572815 C142.84798448 134.46662318 142.87695764 138.3255608 142.875 142.1875 C142.87540283 143.00281189 142.87580566 143.81812378 142.8762207 144.65814209 C142.81598767 165.87315033 138.71276433 184.25375286 129.4375 203.375 C129.11378418 204.04998535 128.79006836 204.7249707 128.45654297 205.42041016 C111.6119816 240.04296308 81.83130574 264.90261142 45.84448242 277.8425293 C30.95710321 282.94727417 16.95761214 284.63924741 1.3125 284.6875 C0.6396698 284.69126648 -0.0331604 284.69503296 -0.72637939 284.69891357 C-13.86771486 284.73616158 -26.78310959 283.71723465 -39.375 279.75 C-40.21337402 279.48912598 -41.05174805 279.22825195 -41.91552734 278.95947266 C-64.09950305 271.82905805 -82.43324139 260.05574413 -99.5625 244.375 C-100.24441406 243.76398438 -100.92632812 243.15296875 -101.62890625 242.5234375 C-124.05466693 221.398475 -140.49681368 186.42514341 -141.71044922 155.61962891 C-141.82669107 151.28827146 -141.86216362 146.95775863 -141.875 142.625 C-141.87876648 141.91971161 -141.88253296 141.21442322 -141.88641357 140.48776245 C-141.98876514 102.63364163 -126.8862446 68.30920956 -100.75 41.1875 C-73.19336221 14.7123629 -38.26763646 -0.11017554 0 0 Z M-32.5625 12.375 C-33.2740625 12.56304199 -33.985625 12.75108398 -34.71875 12.94482422 C-52.03778295 17.73576269 -68.85011137 25.68642776 -82.5625 37.375 C-83.4184375 38.10460937 -84.274375 38.83421875 -85.15625 39.5859375 C-87.67449772 41.80106281 -90.12527863 44.07121748 -92.5625 46.375 C-93.37332031 47.12136719 -94.18414062 47.86773437 -95.01953125 48.63671875 C-119.62223424 72.07708931 -132.74769277 105.34973901 -133.90161133 138.99902344 C-134.37825882 169.72495273 -124.75375521 200.28312069 -105.5625 224.375 C-104.94568359 225.15206299 -104.94568359 225.15206299 -104.31640625 225.94482422 C-81.58367278 254.35230903 -49.20302173 271.83185565 -13.08740234 276.13623047 C-0.86262106 277.29227728 11.38732557 276.69969788 23.4375 274.375 C24.44167969 274.19195312 25.44585937 274.00890625 26.48046875 273.8203125 C49.3075745 269.13337824 69.59635504 259.26782016 87.4375 244.375 C88.58992188 243.43333984 88.58992188 243.43333984 89.765625 242.47265625 C94.48732894 238.4988558 98.53950318 234.15164365 102.4375 229.375 C103.2109375 228.43914062 103.984375 227.50328125 104.78125 226.5390625 C114.85512322 214.07937537 122.05117162 200.426979 127.4375 185.375 C127.81648438 184.35535156 128.19546875 183.33570313 128.5859375 182.28515625 C139.97776084 149.0090407 134.88242992 112.76302341 119.79663086 81.69433594 C103.50598027 49.33511845 74.60158922 26.44971801 40.75 14.5 C38.32198308 13.75981341 35.88436554 13.05027133 33.4375 12.375 C32.32890625 12.05660156 31.2203125 11.73820312 30.078125 11.41015625 C10.83669814 6.85187063 -13.44408678 7.30361859 -32.5625 12.375 Z " fill="#070707" transform="translate(221.5625,79.625)"/>
<path d="M0 0 C6.82385605 -0.33868403 12.97563116 -0.54141562 19 3 C24.04719437 7.63147129 26.81817163 13.1936918 29.48828125 19.3984375 C30.07128242 20.71178574 30.07128242 20.71178574 30.6660614 22.05166626 C31.89294073 24.82124698 33.10324247 27.59768629 34.3125 30.375 C35.54299684 33.1721294 36.77683934 35.96775068 38.01249695 38.76260376 C38.77748668 40.49595969 39.53883569 42.23092778 40.29621887 43.96762085 C40.63715073 44.74578156 40.97808258 45.52394226 41.3293457 46.32568359 C41.62879593 47.01294525 41.92824615 47.70020691 42.23677063 48.40829468 C42.89387542 50.0044975 42.89387542 50.0044975 44 51 C44.39268066 50.01829834 44.78536133 49.03659668 45.18994141 48.02514648 C51.45996094 32.35009766 57.72998047 16.67504883 64 1 C70.93 1 77.86 1 85 1 C85 2.32 85 3.64 85 5 C83.865625 5.309375 82.73125 5.61875 81.5625 5.9375 C78.21224901 6.62924531 78.21224901 6.62924531 77 8 C76.89088336 9.64626943 76.85093754 11.29718398 76.83886719 12.94702148 C76.82925964 14.00159042 76.8196521 15.05615936 76.80975342 16.14268494 C76.80550354 17.29055984 76.80125366 18.43843475 76.796875 19.62109375 C76.79117493 20.79132584 76.78547485 21.96155792 76.77960205 23.16725159 C76.77013559 25.64803152 76.76361157 28.12882413 76.75976562 30.60961914 C76.75005051 34.41770176 76.71903791 38.22524712 76.6875 42.03320312 C76.68097141 44.43749678 76.67572037 46.84179431 76.671875 49.24609375 C76.6533548 50.96486977 76.6533548 50.96486977 76.63446045 52.71836853 C76.63746155 53.77608963 76.64046265 54.83381073 76.64355469 55.92358398 C76.63990906 56.85766586 76.63626343 57.79174774 76.63250732 58.75413513 C76.75377991 59.49527054 76.87505249 60.23640594 77 61 C79.91765 62.9451 81.62537285 63.45276317 85 64 C85 65.32 85 66.64 85 68 C75.43 68 65.86 68 56 68 C56 66.68 56 65.36 56 64 C57.134375 63.690625 58.26875 63.38125 59.4375 63.0625 C62.78775099 62.37075469 62.78775099 62.37075469 64 61 C64.0927833 59.61839885 64.11747043 58.23211962 64.11352539 56.84741211 C64.11344986 55.96657455 64.11337433 55.085737 64.11329651 54.1782074 C64.10813522 53.22092239 64.10297394 52.26363739 64.09765625 51.27734375 C64.0962413 50.30213272 64.09482635 49.32692169 64.09336853 48.32215881 C64.08775133 45.19390857 64.07519593 42.06572877 64.0625 38.9375 C64.05748722 36.82226666 64.05292393 34.70703219 64.04882812 32.59179688 C64.03777631 27.39450704 64.02102146 22.19725855 64 17 C63.54149658 18.11858398 63.08299316 19.23716797 62.6105957 20.38964844 C60.88698422 24.59438054 59.16291658 28.79892548 57.4387207 33.00341797 C56.69673693 34.81293834 55.95487201 36.62250746 55.21313477 38.43212891 C51.1686474 48.29925991 47.12075633 58.16440858 43 68 C40.64051819 67.74388123 40.64051819 67.74388123 38 67 C36.70433044 65.31459045 36.70433044 65.31459045 35.75170898 63.09790039 C35.20105019 61.85509056 35.20105019 61.85509056 34.63926697 60.58717346 C34.26201981 59.68313278 33.88477264 58.7790921 33.49609375 57.84765625 C32.88834862 56.45370888 32.88834862 56.45370888 32.26832581 55.03160095 C30.97333554 52.04933011 29.70540511 49.05637189 28.4375 46.0625 C27.58049641 44.0793338 26.72179122 42.096902 25.86132812 40.11523438 C22.11665675 31.4578352 18.46943346 22.7716713 15 14 C14.92393829 20.335371 14.87139543 26.67062424 14.83520508 33.00634766 C14.82011818 35.16166586 14.79964611 37.31695336 14.77368164 39.47216797 C14.73729456 42.57006404 14.72027261 45.66755423 14.70703125 48.765625 C14.69154739 49.72929993 14.67606354 50.69297485 14.66011047 51.68585205 C14.65988388 52.58648376 14.65965729 53.48711548 14.65942383 54.41503906 C14.65276199 55.20557678 14.64610016 55.9961145 14.63923645 56.81060791 C15.09955241 59.60416097 16.05782829 60.96247263 18 63 C21.10197397 63.80946422 21.10197397 63.80946422 24 64 C24 65.32 24 66.64 24 68 C16.08 68 8.16 68 0 68 C0 66.68 0 65.36 0 64 C1.134375 63.690625 2.26875 63.38125 3.4375 63.0625 C6.78775099 62.37075469 6.78775099 62.37075469 8 61 C8.0935919 59.28134591 8.11744611 57.55884256 8.11352539 55.83764648 C8.11344986 54.73658066 8.11337433 53.63551483 8.11329651 52.50108337 C8.10813522 51.3031868 8.10297394 50.10529022 8.09765625 48.87109375 C8.0962413 47.65172623 8.09482635 46.4323587 8.09336853 45.17604065 C8.08774967 41.2631693 8.07519396 37.35035419 8.0625 33.4375 C8.05748743 30.79231853 8.0529241 28.14713617 8.04882812 25.50195312 C8.03777411 19.00128274 8.02101764 12.50064539 8 6 C5.69 5.67 3.38 5.34 1 5 C0.67 3.35 0.34 1.7 0 0 Z " fill="#090909" transform="translate(144,154)"/>
<path d="M0 0 C3.67011822 2.26771532 6.29958348 4.03883307 7.54296875 8.33203125 C8.15100001 12.11185446 8.18299876 14.54156229 6.734375 18.125 C4.74864189 20.38462733 3.79991116 21.33186763 0.921875 22.1875 C-1.76919889 22.33729106 -4.37800577 22.27750397 -7.078125 22.1875 C-7.738125 20.8675 -8.398125 19.5475 -9.078125 18.1875 C-8.43875 17.89875 -7.799375 17.61 -7.140625 17.3125 C-4.92606421 16.35926549 -4.92606421 16.35926549 -4.078125 14.1875 C-3.6781116 10.50737667 -3.56782603 8.8385711 -5.890625 5.875 C-10.47425985 2.33905311 -15.54944388 2.8508175 -21.078125 3.1875 C-24.51473035 4.00929693 -25.82047907 4.94378088 -28.390625 7.375 C-30.54700801 10.96897168 -30.5947845 13.05422399 -30.078125 17.1875 C-26.94127407 25.76155922 -15.51910103 29.6138055 -7.83911133 33.29614258 C0.1597081 37.15875748 7.51898224 41.54475468 10.921875 50.1875 C11.55290318 56.27765565 11.86334507 62.12350793 9.296875 67.75 C1.99926152 75.23965594 -5.13867813 79.63049628 -15.83032227 79.79418945 C-16.71647217 79.77960693 -17.60262207 79.76502441 -18.515625 79.75 C-19.43851318 79.74121826 -20.36140137 79.73243652 -21.31225586 79.72338867 C-29.77756127 79.46936207 -35.70599697 77.72412208 -41.640625 71.5 C-44.4155648 67.03596642 -44.75315421 63.39872551 -44.078125 58.1875 C-42.28418832 55.31720131 -41.09549224 53.69618362 -38.078125 52.1875 C-36.53788504 52.11799459 -34.99477512 52.10297643 -33.453125 52.125 C-32.22722656 52.13853516 -32.22722656 52.13853516 -30.9765625 52.15234375 C-30.35007813 52.16394531 -29.72359375 52.17554688 -29.078125 52.1875 C-28.48828125 54.10546875 -28.48828125 54.10546875 -28.078125 56.1875 C-28.5525 56.620625 -29.026875 57.05375 -29.515625 57.5 C-31.40628363 59.21611565 -31.40628363 59.21611565 -31.515625 62.5 C-31.00793228 66.77912437 -29.76673645 68.86627409 -27.078125 72.1875 C-22.06061817 74.69625342 -13.92043218 74.07658474 -8.66796875 72.43359375 C-5.25418527 70.58536702 -3.47497372 68.74369742 -2.078125 65.1875 C-1.6898936 62.77089047 -1.6898936 62.77089047 -1.703125 60.25 C-1.66058594 58.99896484 -1.66058594 58.99896484 -1.6171875 57.72265625 C-2.25886927 54.19340652 -3.53377071 52.71153197 -6.078125 50.1875 C-8.48159259 48.67358096 -10.99823631 47.4941749 -13.578125 46.3125 C-15.01561392 45.61986046 -16.45180249 44.92451613 -17.88671875 44.2265625 C-18.94995361 43.71270996 -18.94995361 43.71270996 -20.03466797 43.18847656 C-28.83616331 38.87711086 -37.51872258 34.30630483 -42.078125 25.1875 C-43.10900043 12.15791053 -43.10900043 12.15791053 -40.640625 7.1875 C-30.90649635 -4.20855305 -13.36827752 -6.63804125 0 0 Z " fill="#070707" transform="translate(284.078125,185.8125)"/>
</svg>
